<svg width="35" height="25" viewBox="0 0 35 25" fill="none" xmlns="http://www.w3.org/2000/svg">
<path d="M12.5 14.8438C13.1216 14.8438 13.7177 14.5968 14.1573 14.1573C14.5968 13.7177 14.8438 13.1216 14.8438 12.5C14.8438 11.8784 14.5968 11.2823 14.1573 10.8427C13.7177 10.4032 13.1216 10.1562 12.5 10.1562C11.8784 10.1562 11.2823 10.4032 10.8427 10.8427C10.4032 11.2823 10.1562 11.8784 10.1562 12.5C10.1562 13.1216 10.4032 13.7177 10.8427 14.1573C11.2823 14.5968 11.8784 14.8438 12.5 14.8438Z" fill="#A3ABCB"/>
<path d="M22.5 14.8438C23.1216 14.8438 23.7177 14.5968 24.1573 14.1573C24.5968 13.7177 24.8438 13.1216 24.8438 12.5C24.8438 11.8784 24.5968 11.2823 24.1573 10.8427C23.7177 10.4032 23.1216 10.1562 22.5 10.1562C21.8784 10.1562 21.2823 10.4032 20.8427 10.8427C20.4032 11.2823 20.1562 11.8784 20.1562 12.5C20.1562 13.1216 20.4032 13.7177 20.8427 14.1573C21.2823 14.5968 21.8784 14.8438 22.5 14.8438Z" fill="#A3ABCB"/>
</svg>
