<svg
            class="w-7 h-7"
            viewBox="0 0 49 40"
            fill="none"
            xmlns="http://www.w3.org/2000/svg"
          >
            <g clip-path="url(#clip0)">
              <path
                fill-rule="evenodd"
                clip-rule="evenodd"
                d="M-5.40813e-05 1.39987V0.308758C-5.40813e-05 0.308758 -0.00739096 0 0.454571 0C0.538028 0 0.623189 0.0907189 0.971298 0.576471C1.31941 1.06222 32.1775 39.4848 32.1775 39.4848C32.2139 39.5266 32.2403 39.5762 32.2546 39.6297C32.269 39.6833 32.2708 39.7394 32.2601 39.7937C32.2329 39.9999 31.985 39.979 31.6195 39.979H16.8431C16.8431 39.979 16.2404 39.9152 15.9544 39.4643C15.6826 39.0936 0.3719 20.1541 0.3719 20.1541C0.20412 19.9332 0.103686 19.6688 0.082617 19.3924C0.0696464 18.9744 -5.40813e-05 1.39987 -5.40813e-05 1.39987ZM28.2302 26.4948H42.511C42.511 26.4948 43.4075 26.498 43.8129 26.1037C44.2182 25.7093 48.3799 20.4837 48.3799 20.4837C48.3799 20.4837 48.9999 19.6625 48.9999 19.1455V0.494118C48.9999 0.494118 48.9898 0.0206536 48.5866 0.0206536C48.5047 0.0206536 27.7342 25.9186 27.7342 25.9186C27.6638 26.0215 27.6277 26.1439 27.6309 26.2685C27.638 26.4727 27.7455 26.4948 28.2302 26.4948Z"
                fill="#FAFAFA"
              />
            </g>
            <defs>
              <clipPath id="clip0">
                <rect width="49" height="40" fill="white" />
              </clipPath>
            </defs>
          </svg>